{"asset":{"generator":"Khronos glTF Blender I/O v5.1.20","version":"2.0"},"scene":0,"scenes":[{"name":"Scene","nodes":[0]}],"nodes":[{"mesh":0,"name":"Recovered_Node_003"}],"materials":[{"doubleSided":true,"name":"Recovered_Material_3.002","normalTexture":{"index":0},"pbrMetallicRoughness":{"baseColorTexture":{"index":1},"metallicRoughnessTexture":{"index":2}}}],"meshes":[{"name":"Recovered_Mesh_003.002","primitives":[{"attributes":{"POSITION":0,"NORMAL":1,"TEXCOORD_0":2},"indices":3,"material":0}]}],"textures":[{"sampler":0,"source":0},{"sampler":0,"source":1},{"sampler":0,"source":2}],"images":[{"name":"Recovered_Texture_75_normal_rgb","uri":"rubberbootstier2_parts/image_000.png"},{"name":"Recovered_Texture_61","uri":"rubberbootstier2_parts/image_001.png"},{"name":"Recovered_Texture_61_roughness_a","uri":"rubberbootstier2_parts/image_002.png"}],"accessors":[{"bufferView":0,"componentType":5126,"count":20371,"max":[7.004297256469727,21.134584426879883,7.373588562011719],"min":[-6.995264053344727,-0.14696548879146576,-5.682153224945068],"type":"VEC3"},{"bufferView":1,"componentType":5126,"count":20371,"type":"VEC3"},{"bufferView":2,"componentType":5126,"count":20371,"type":"VEC2"},{"bufferView":3,"componentType":5123,"count":21120,"type":"SCALAR"}],"bufferViews":[{"buffer":0,"byteLength":244452,"byteOffset":0,"target":34962},{"buffer":0,"byteLength":244452,"byteOffset":244452,"target":34962},{"buffer":0,"byteLength":162968,"byteOffset":488904,"target":34962},{"buffer":0,"byteLength":42240,"byteOffset":651872,"target":34963}],"samplers":[{"magFilter":9729,"minFilter":9987}],"buffers":[{"byteLength":694112,"uri":"rubberbootstier2_parts/buffer_000.bin"}]}