{
	"asset":{
		"generator":"Khronos glTF Blender I/O v4.3.47",
		"version":"2.0"
	},
	"scene":0,
	"scenes":[
		{
			"name":"Scene",
			"nodes":[
				2
			]
		}
	],
	"nodes":[
		{
			"mesh":0,
			"name":"Cap",
			"rotation":[
				-0.7071068286895752,
				0,
				0,
				0.7071068286895752
			],
			"scale":[
				0.3525291085243225,
				0.3525291085243225,
				0.3525291085243225
			],
			"translation":[
				0,
				0.05952352657914162,
				-4.177667140960693
			]
		},
		{
			"mesh":1,
			"name":"Opener",
			"rotation":[
				-0.7071068286895752,
				0,
				0,
				0.7071067690849304
			],
			"scale":[
				0.040084585547447205,
				0.040084585547447205,
				0.040084585547447205
			],
			"translation":[
				0,
				0.048334065824747086,
				-4.185013771057129
			]
		},
		{
			"children":[
				0,
				1
			],
			"mesh":2,
			"name":"Can",
			"rotation":[
				0.7071068286895752,
				0,
				0,
				0.7071068286895752
			]
		}
	],
	"materials":[
		{
			"doubleSided":true,
			"name":"Material.002"
		},
		{
			"doubleSided":true,
			"name":"Material.001"
		},
		{
			"doubleSided":true,
			"name":"Material.004",
			"pbrMetallicRoughness":{
				"baseColorTexture":{
					"index":0
				},
				"metallicFactor":0.800000011920929,
				"roughnessFactor":0.5
			}
		},
		{
			"doubleSided":true,
			"name":"Material"
		},
		{
			"doubleSided":true,
			"name":"Material.005",
			"pbrMetallicRoughness":{
				"baseColorFactor":[
					0,
					0,
					0,
					1
				],
				"metallicFactor":0.800000011920929,
				"roughnessFactor":0.4748201370239258
			}
		},
		{
			"doubleSided":true,
			"name":"Material.006",
			"pbrMetallicRoughness":{
				"baseColorTexture":{
					"index":1
				},
				"metallicFactor":0.800000011920929,
				"roughnessFactor":0.5
			}
		}
	],
	"meshes":[
		{
			"name":"Circle.001",
			"primitives":[
				{
					"attributes":{
						"POSITION":0,
						"NORMAL":1,
						"TEXCOORD_0":2
					},
					"indices":3,
					"material":0
				}
			]
		},
		{
			"name":"Plane",
			"primitives":[
				{
					"attributes":{
						"POSITION":4,
						"NORMAL":5,
						"TEXCOORD_0":6
					},
					"indices":7,
					"material":1
				}
			]
		},
		{
			"name":"BezierCurve.001",
			"primitives":[
				{
					"attributes":{
						"POSITION":8,
						"NORMAL":9,
						"TEXCOORD_0":10
					},
					"indices":11,
					"material":2
				},
				{
					"attributes":{
						"POSITION":12,
						"NORMAL":13,
						"TEXCOORD_0":14
					},
					"indices":15,
					"material":3
				},
				{
					"attributes":{
						"POSITION":16,
						"NORMAL":17,
						"TEXCOORD_0":18
					},
					"indices":19,
					"material":4
				},
				{
					"attributes":{
						"POSITION":20,
						"NORMAL":21,
						"TEXCOORD_0":22
					},
					"indices":11,
					"material":5
				}
			]
		}
	],
	"textures":[
		{
			"sampler":0,
			"source":0
		},
		{
			"sampler":0,
			"source":1
		}
	],
	"images":[
		{
			"mimeType":"image/png",
			"name":"litclassic",
			"uri":"litclassic.png"
		},
		{
			"mimeType":"image/png",
			"name":"2024-12-31_14-18-30",
			"uri":"2024-12-31_14-18-30.png"
		}
	],
	"accessors":[
		{
			"bufferView":0,
			"componentType":5126,
			"count":20873,
			"max":[
				1.7949663400650024,
				0.10294519364833832,
				1.649120569229126
			],
			"min":[
				-1.7949663400650024,
				-0.08403230458498001,
				-1.9408117532730103
			],
			"type":"VEC3"
		},
		{
			"bufferView":1,
			"componentType":5126,
			"count":20873,
			"type":"VEC3"
		},
		{
			"bufferView":2,
			"componentType":5126,
			"count":20873,
			"type":"VEC2"
		},
		{
			"bufferView":3,
			"componentType":5123,
			"count":32976,
			"type":"SCALAR"
		},
		{
			"bufferView":4,
			"componentType":5126,
			"count":8510,
			"max":[
				5.002261161804199,
				0,
				3.750718355178833
			],
			"min":[
				-5.002261161804199,
				-0.5254669785499573,
				-12.655961990356445
			],
			"type":"VEC3"
		},
		{
			"bufferView":5,
			"componentType":5126,
			"count":8510,
			"type":"VEC3"
		},
		{
			"bufferView":6,
			"componentType":5126,
			"count":8510,
			"type":"VEC2"
		},
		{
			"bufferView":7,
			"componentType":5123,
			"count":14736,
			"type":"SCALAR"
		},
		{
			"bufferView":8,
			"componentType":5126,
			"count":429,
			"max":[
				0.8221708536148071,
				0.8221708536148071,
				-0.25758039951324463
			],
			"min":[
				-0.8221708536148071,
				-0.8221708536148071,
				-3.829566240310669
			],
			"type":"VEC3"
		},
		{
			"bufferView":9,
			"componentType":5126,
			"count":429,
			"type":"VEC3"
		},
		{
			"bufferView":10,
			"componentType":5126,
			"count":429,
			"type":"VEC2"
		},
		{
			"bufferView":11,
			"componentType":5123,
			"count":2304,
			"type":"SCALAR"
		},
		{
			"bufferView":12,
			"componentType":5126,
			"count":6697,
			"max":[
				0.8122210502624512,
				0.8122210502624512,
				-0.01589219644665718
			],
			"min":[
				-0.8122210502624512,
				-0.8122210502624512,
				-4.21781587600708
			],
			"type":"VEC3"
		},
		{
			"bufferView":13,
			"componentType":5126,
			"count":6697,
			"type":"VEC3"
		},
		{
			"bufferView":14,
			"componentType":5126,
			"count":6697,
			"type":"VEC2"
		},
		{
			"bufferView":15,
			"componentType":5123,
			"count":39168,
			"type":"SCALAR"
		},
		{
			"bufferView":16,
			"componentType":5126,
			"count":890,
			"max":[
				0.8177154064178467,
				0.8177154064178467,
				-3.829566240310669
			],
			"min":[
				-0.8177154064178467,
				-0.8177154064178467,
				-4.128142833709717
			],
			"type":"VEC3"
		},
		{
			"bufferView":17,
			"componentType":5126,
			"count":890,
			"type":"VEC3"
		},
		{
			"bufferView":18,
			"componentType":5126,
			"count":890,
			"type":"VEC2"
		},
		{
			"bufferView":19,
			"componentType":5123,
			"count":4704,
			"type":"SCALAR"
		},
		{
			"bufferView":20,
			"componentType":5126,
			"count":429,
			"max":[
				0.7352632284164429,
				0.7352632284164429,
				-3.9331514835357666
			],
			"min":[
				-0.7352632284164429,
				-0.7352632284164429,
				-4.039316177368164
			],
			"type":"VEC3"
		},
		{
			"bufferView":21,
			"componentType":5126,
			"count":429,
			"type":"VEC3"
		},
		{
			"bufferView":22,
			"componentType":5126,
			"count":429,
			"type":"VEC2"
		}
	],
	"bufferViews":[
		{
			"buffer":0,
			"byteLength":250476,
			"byteOffset":0,
			"target":34962
		},
		{
			"buffer":0,
			"byteLength":250476,
			"byteOffset":250476,
			"target":34962
		},
		{
			"buffer":0,
			"byteLength":166984,
			"byteOffset":500952,
			"target":34962
		},
		{
			"buffer":0,
			"byteLength":65952,
			"byteOffset":667936,
			"target":34963
		},
		{
			"buffer":0,
			"byteLength":102120,
			"byteOffset":733888,
			"target":34962
		},
		{
			"buffer":0,
			"byteLength":102120,
			"byteOffset":836008,
			"target":34962
		},
		{
			"buffer":0,
			"byteLength":68080,
			"byteOffset":938128,
			"target":34962
		},
		{
			"buffer":0,
			"byteLength":29472,
			"byteOffset":1006208,
			"target":34963
		},
		{
			"buffer":0,
			"byteLength":5148,
			"byteOffset":1035680,
			"target":34962
		},
		{
			"buffer":0,
			"byteLength":5148,
			"byteOffset":1040828,
			"target":34962
		},
		{
			"buffer":0,
			"byteLength":3432,
			"byteOffset":1045976,
			"target":34962
		},
		{
			"buffer":0,
			"byteLength":4608,
			"byteOffset":1049408,
			"target":34963
		},
		{
			"buffer":0,
			"byteLength":80364,
			"byteOffset":1054016,
			"target":34962
		},
		{
			"buffer":0,
			"byteLength":80364,
			"byteOffset":1134380,
			"target":34962
		},
		{
			"buffer":0,
			"byteLength":53576,
			"byteOffset":1214744,
			"target":34962
		},
		{
			"buffer":0,
			"byteLength":78336,
			"byteOffset":1268320,
			"target":34963
		},
		{
			"buffer":0,
			"byteLength":10680,
			"byteOffset":1346656,
			"target":34962
		},
		{
			"buffer":0,
			"byteLength":10680,
			"byteOffset":1357336,
			"target":34962
		},
		{
			"buffer":0,
			"byteLength":7120,
			"byteOffset":1368016,
			"target":34962
		},
		{
			"buffer":0,
			"byteLength":9408,
			"byteOffset":1375136,
			"target":34963
		},
		{
			"buffer":0,
			"byteLength":5148,
			"byteOffset":1384544,
			"target":34962
		},
		{
			"buffer":0,
			"byteLength":5148,
			"byteOffset":1389692,
			"target":34962
		},
		{
			"buffer":0,
			"byteLength":3432,
			"byteOffset":1394840,
			"target":34962
		}
	],
	"samplers":[
		{
			"magFilter":9729,
			"minFilter":9987
		}
	],
	"buffers":[
		{
			"byteLength":1398272,
			"uri":"litenergy_classic.bin"
		}
	]
}
