{"asset":{"version":"2.0","generator":"Betonshik Monetka restore extractor"},"scene":0,"scenes":[{"name":"MONETKA_RESTORE","nodes":[0]}],"nodes":[{"name":"monetka5-material_RESTORED","mesh":0}],"meshes":[{"name":"monetka5-material","primitives":[{"attributes":{"POSITION":0,"NORMAL":1,"TEXCOORD_0":2,"TANGENT":3},"indices":4,"material":0},{"attributes":{"POSITION":5,"NORMAL":6,"TEXCOORD_0":7,"TANGENT":8},"indices":9,"material":1},{"attributes":{"POSITION":10,"NORMAL":11,"TEXCOORD_0":12,"TANGENT":13},"indices":14,"material":2},{"attributes":{"POSITION":15,"NORMAL":16,"TEXCOORD_0":17,"TANGENT":18},"indices":19,"material":3},{"attributes":{"POSITION":20,"NORMAL":21,"TEXCOORD_0":22,"TANGENT":23},"indices":24,"material":4},{"attributes":{"POSITION":25,"NORMAL":26,"TEXCOORD_0":27,"TANGENT":28},"indices":29,"material":5}]}],"materials":[{"doubleSided":true,"name":"monetka5","pbrMetallicRoughness":{"baseColorFactor":[0,0.28829601407051086,0.0025893698912113905,1],"metallicFactor":0,"roughnessFactor":0.6000000238418579}},{"doubleSided":true,"name":"monetka1","pbrMetallicRoughness":{"baseColorFactor":[0.800000011920929,0.800000011920929,0.800000011920929,1],"metallicFactor":0,"roughnessFactor":0.6000000238418579}},{"doubleSided":true,"name":"monetka2","pbrMetallicRoughness":{"baseColorFactor":[0.6859570145606995,0.14979200065135956,0.0013715700479224324,1],"metallicFactor":0,"roughnessFactor":0.6000000238418579}},{"doubleSided":true,"name":"monetka3","pbrMetallicRoughness":{"baseColorTexture":{"index":0},"metallicFactor":0,"roughnessFactor":0.6000000238418579}},{"doubleSided":true,"name":"monetka4","pbrMetallicRoughness":{"baseColorTexture":{"index":1},"metallicFactor":0,"roughnessFactor":0.6000000238418579}},{"doubleSided":true,"name":"monetka6","pbrMetallicRoughness":{"baseColorTexture":{"index":2},"metallicFactor":0,"roughnessFactor":0.6000000238418579}}],"textures":[{"sampler":0,"source":0},{"sampler":0,"source":1},{"sampler":0,"source":2}],"images":[{"name":"Image_0","uri":"monetka_tex_00.png"},{"name":"Image_3","uri":"monetka_tex_01.png"},{"name":"Image_1","uri":"monetka_tex_02.png"}],"samplers":[{"magFilter":9729,"minFilter":9987}],"accessors":[{"bufferView":0,"componentType":5126,"count":22,"max":[31.961057662963867,0.3599240779876709,-31.081514358520508],"min":[19.730178833007812,-0.6801235675811768,-50.43527603149414],"type":"VEC3"},{"bufferView":1,"componentType":5126,"count":22,"type":"VEC3"},{"bufferView":2,"componentType":5126,"count":22,"type":"VEC2"},{"bufferView":3,"componentType":5126,"count":22,"type":"VEC4"},{"bufferView":4,"componentType":5123,"count":24,"type":"SCALAR"},{"bufferView":5,"componentType":5126,"count":160,"max":[31.961057662963867,4.85548734664917,-31.081514358520508],"min":[19.730178833007812,-0.6801235675811768,-50.43527603149414],"type":"VEC3"},{"bufferView":6,"componentType":5126,"count":160,"type":"VEC3"},{"bufferView":7,"componentType":5126,"count":160,"type":"VEC2"},{"bufferView":8,"componentType":5126,"count":160,"type":"VEC4"},{"bufferView":9,"componentType":5123,"count":210,"type":"SCALAR"},{"bufferView":10,"componentType":5126,"count":302,"max":[32.02233123779297,3.7821295261383057,-31.00107765197754],"min":[19.47901725769043,-0.11805343627929688,-50.59306716918945],"type":"VEC3"},{"bufferView":11,"componentType":5126,"count":302,"type":"VEC3"},{"bufferView":12,"componentType":5126,"count":302,"type":"VEC2"},{"bufferView":13,"componentType":5126,"count":302,"type":"VEC4"},{"bufferView":14,"componentType":5123,"count":354,"type":"SCALAR"},{"bufferView":15,"componentType":5126,"count":18,"max":[25.0723819732666,3.696380376815796,-31.011377334594727],"min":[19.47901725769043,2.742342710494995,-35.26447677612305],"type":"VEC3"},{"bufferView":16,"componentType":5126,"count":18,"type":"VEC3"},{"bufferView":17,"componentType":5126,"count":18,"type":"VEC2"},{"bufferView":18,"componentType":5126,"count":18,"type":"VEC4"},{"bufferView":19,"componentType":5123,"count":18,"type":"SCALAR"},{"bufferView":20,"componentType":5126,"count":348,"max":[20.93234634399414,4.264959335327148,-34.1060905456543],"min":[19.945764541625977,2.8918368816375732,-34.963768005371094],"type":"VEC3"},{"bufferView":21,"componentType":5126,"count":348,"type":"VEC3"},{"bufferView":22,"componentType":5126,"count":348,"type":"VEC2"},{"bufferView":23,"componentType":5126,"count":348,"type":"VEC4"},{"bufferView":24,"componentType":5123,"count":348,"type":"SCALAR"},{"bufferView":25,"componentType":5126,"count":28,"max":[29.62326431274414,2.7391178607940674,-31.081514358520508],"min":[19.730178833007812,0.08326292037963867,-46.02731704711914],"type":"VEC3"},{"bufferView":26,"componentType":5126,"count":28,"type":"VEC3"},{"bufferView":27,"componentType":5126,"count":28,"type":"VEC2"},{"bufferView":28,"componentType":5126,"count":28,"type":"VEC4"},{"bufferView":29,"componentType":5123,"count":30,"type":"SCALAR"}],"bufferViews":[{"buffer":0,"byteLength":264,"byteOffset":0,"target":34962},{"buffer":0,"byteLength":264,"byteOffset":264,"target":34962},{"buffer":0,"byteLength":176,"byteOffset":528,"target":34962},{"buffer":0,"byteLength":352,"byteOffset":704,"target":34962},{"buffer":0,"byteLength":48,"byteOffset":1056,"target":34963},{"buffer":0,"byteLength":1920,"byteOffset":1104,"target":34962},{"buffer":0,"byteLength":1920,"byteOffset":3024,"target":34962},{"buffer":0,"byteLength":1280,"byteOffset":4944,"target":34962},{"buffer":0,"byteLength":2560,"byteOffset":6224,"target":34962},{"buffer":0,"byteLength":420,"byteOffset":8784,"target":34963},{"buffer":0,"byteLength":3624,"byteOffset":9204,"target":34962},{"buffer":0,"byteLength":3624,"byteOffset":12828,"target":34962},{"buffer":0,"byteLength":2416,"byteOffset":16452,"target":34962},{"buffer":0,"byteLength":4832,"byteOffset":18868,"target":34962},{"buffer":0,"byteLength":708,"byteOffset":23700,"target":34963},{"buffer":0,"byteLength":216,"byteOffset":24408,"target":34962},{"buffer":0,"byteLength":216,"byteOffset":24624,"target":34962},{"buffer":0,"byteLength":144,"byteOffset":24840,"target":34962},{"buffer":0,"byteLength":288,"byteOffset":24984,"target":34962},{"buffer":0,"byteLength":36,"byteOffset":25272,"target":34963},{"buffer":0,"byteLength":4176,"byteOffset":25308,"target":34962},{"buffer":0,"byteLength":4176,"byteOffset":29484,"target":34962},{"buffer":0,"byteLength":2784,"byteOffset":33660,"target":34962},{"buffer":0,"byteLength":5568,"byteOffset":36444,"target":34962},{"buffer":0,"byteLength":696,"byteOffset":42012,"target":34963},{"buffer":0,"byteLength":336,"byteOffset":42708,"target":34962},{"buffer":0,"byteLength":336,"byteOffset":43044,"target":34962},{"buffer":0,"byteLength":224,"byteOffset":43380,"target":34962},{"buffer":0,"byteLength":448,"byteOffset":43604,"target":34962},{"buffer":0,"byteLength":60,"byteOffset":44052,"target":34963}],"buffers":[{"uri":"monetka_restore.bin","byteLength":44112}]}